<svg role="img" viewBox="0 0 24 24" xmlns="http://www.w3.org/2000/svg">
  <title>GitHub</title>
  <path d="M12 .297a12 12 0 0 0-3.798 23.412c.6.111.82-.261.82-.579v-2.234c-3.338.726-4.033-1.608-4.033-1.608-.546-1.385-1.332-1.753-1.332-1.753-1.086-.743.082-.728.082-.728 1.2.084 1.832 1.229 1.832 1.229 1.07 1.835 2.809 1.305 3.492.998.108-.776.418-1.305.76-1.605-2.665-.304-5.466-1.332-5.466-5.931 0-1.309.469-2.381 1.234-3.221-.124-.303-.534-1.525.117-3.176 0 0 1.005-.322 3.3 1.23a11.49 11.49 0 0 1 3.003-.404 11.49 11.49 0 0 1 3.003.404c2.289-1.552 3.293-1.23 3.293-1.23.653 1.651.243 2.873.119 3.176.77.84 1.233 1.912 1.233 3.221 0 4.609-2.804 5.624-5.476 5.921.43.37.823 1.103.823 2.222v3.293c0 .319.218.694.825.576A12.001 12.001 0 0 0 12 .297"/>
</svg>