<svg role="img" viewBox="0 0 24 24" xmlns="http://www.w3.org/2000/svg">
  <title>LinkedIn</title>
  <path d="M20.447 20.452h-3.554v-5.569c0-1.328-.026-3.037-1.852-3.037-1.854 0-2.137 1.45-2.137 2.949v5.657H9.347V9h3.414v1.561h.049c.476-.9 1.637-1.852 3.372-1.852 3.604 0 4.27 2.372 4.27 5.459v6.284zM5.337 7.433a2.062 2.062 0 1 1 0-4.123 2.062 2.062 0 0 1 0 4.122zm1.777 13.019H3.559V9h3.555v11.452zM22.225 0H1.771C.792 0 0 .774 0 1.729v20.542C0 23.226.792 24 1.771 24h20.451c.979 0 1.771-.774 1.771-1.729V1.729C24 .774 23.204 0 22.225 0z"/>
</svg>